<svg xmlns="http://www.w3.org/2000/svg" viewBox="0 0 220 220">
  <defs>
    <linearGradient id="cap" x1="42" y1="30" x2="184" y2="118" gradientUnits="userSpaceOnUse">
      <stop stop-color="#1689FF"/>
      <stop offset="1" stop-color="#063C9D"/>
    </linearGradient>
    <linearGradient id="bubble" x1="56" y1="86" x2="174" y2="184" gradientUnits="userSpaceOnUse">
      <stop stop-color="#1689FF"/>
      <stop offset="1" stop-color="#0B56D8"/>
    </linearGradient>
    <linearGradient id="bell" x1="154" y1="82" x2="200" y2="134" gradientUnits="userSpaceOnUse">
      <stop stop-color="#FFC21B"/>
      <stop offset="1" stop-color="#FF8800"/>
    </linearGradient>
  </defs>
  <path fill="url(#bubble)" d="M55 92h100c22 0 40 18 40 40v18c0 22-18 40-40 40h-35l-34 28v-28H55c-22 0-40-18-40-40v-18c0-22 18-40 40-40Z"/>
  <path fill="#fff" d="M52 105c29-8 54-2 69 20 15-22 40-28 69-20v19c-28-7-50-1-65 22h-8c-15-23-37-29-65-22v-19Z"/>
  <path fill="url(#cap)" d="M18 74 111 34l93 40c5 2 5 9 0 11l-93 38-93-38c-5-2-5-9 0-11Z"/>
  <path fill="#063C9D" d="M58 95v27c0 21 24 38 53 38s53-17 53-38V95l-53 22-53-22Z" opacity=".92"/>
  <circle cx="174" cy="108" r="34" fill="#fff"/>
  <circle cx="174" cy="108" r="27" fill="url(#bell)"/>
  <path fill="#fff" d="M174 88c-12 0-19 9-19 21v9l-6 8h50l-6-8v-9c0-12-7-21-19-21Zm-7 41h14a7 7 0 0 1-14 0Z"/>
</svg>
